<?xml version="1.0" standalone="no"?>
<!DOCTYPE svg PUBLIC "-//W3C//DTD SVG 20010904//EN"
 "http://www.w3.org/TR/2001/REC-SVG-20010904/DTD/svg10.dtd">
<svg version="1.0" xmlns="http://www.w3.org/2000/svg"
 width="624.000000pt" height="624.000000pt" viewBox="0 0 624.000000 624.000000"
 preserveAspectRatio="xMidYMid meet">
<metadata>
Created by potrace 1.14, written by Peter Selinger 2001-2017
</metadata>
<g transform="translate(0.000000,624.000000) scale(0.100000,-0.100000)"
fill="#000000" stroke="none">
<path d="M4555 4238 c-11 -11 -41 -31 -67 -44 -25 -13 -50 -33 -53 -45 -8 -25
-34 -53 -58 -62 -10 -4 -22 -17 -28 -29 -6 -13 -33 -39 -60 -58 -87 -62 -85
-117 11 -245 33 -44 60 -101 60 -126 0 -5 -7 -9 -15 -9 -23 0 -32 -36 -31
-117 1 -45 -3 -72 -9 -70 -5 2 -11 16 -13 30 -2 15 -7 27 -10 27 -4 0 -9 12
-10 28 -1 15 -6 28 -11 30 -5 2 -8 14 -5 26 2 14 -3 29 -12 36 -18 16 -145 25
-209 16 l-45 -7 -17 -60 c-18 -64 -23 -67 -29 -17 -7 53 -13 65 -43 78 -27 11
-130 8 -164 -6 -19 -7 -23 -25 -22 -96 0 -32 -3 -58 -8 -58 -4 0 -5 -4 -2 -10
3 -5 -3 -10 -14 -10 -19 0 -21 6 -21 79 0 101 -9 110 -113 105 -39 -2 -76 -4
-82 -4 -5 -1 -34 3 -64 8 -196 34 -329 -94 -333 -323 -2 -91 81 -235 134 -235
10 0 18 -5 18 -12 0 -6 3 -8 6 -5 4 3 16 1 28 -5 29 -16 42 -18 111 -18 72 0
96 3 113 14 7 4 20 2 28 -5 18 -15 120 -15 138 0 8 7 14 39 16 84 1 39 2 77 3
84 0 6 6 9 14 6 7 -3 11 -9 8 -13 -3 -4 1 -10 8 -13 8 -3 12 -25 12 -63 -1
-50 3 -63 23 -82 18 -17 27 -20 37 -12 10 8 14 7 18 -2 4 -11 6 -10 6 0 1 7 5
10 11 7 18 -11 51 -14 45 -4 -4 5 -1 9 4 9 6 0 11 -6 11 -12 0 -9 4 -8 10 2 9
13 10 13 10 0 0 -13 1 -13 10 0 7 11 10 11 10 2 0 -7 4 -11 9 -7 5 3 12 1 16
-5 4 -6 12 -7 18 -3 7 4 20 8 30 9 9 1 24 2 32 3 8 0 23 14 34 31 10 16 22 27
27 22 4 -4 2 1 -5 11 -10 13 -11 17 -1 17 9 0 9 4 -1 17 -10 12 -11 15 -1 9 7
-4 19 -2 27 4 12 10 15 10 15 0 0 -10 4 -9 18 1 9 7 14 10 10 5 -4 -5 -1 -20
6 -35 7 -14 12 -30 10 -36 -5 -16 45 -47 79 -49 18 0 35 -5 39 -11 5 -6 8 -5
8 4 0 10 3 11 13 2 8 -6 17 -8 21 -4 4 4 32 8 62 8 47 0 54 -3 55 -20 1 -16 2
-16 6 -3 5 20 30 31 39 16 4 -7 9 -6 15 3 8 12 11 12 18 0 8 -12 12 -12 25 -2
9 8 16 10 16 5 0 -5 14 -9 30 -9 17 -1 30 3 30 7 0 5 9 4 20 -2 16 -8 20 -8
20 4 0 14 33 12 55 -4 13 -9 120 -6 160 5 126 33 185 133 158 265 -4 20 -25
52 -54 82 -48 49 -48 49 -34 83 20 46 26 122 13 150 -13 30 -34 35 -133 31
-66 -2 -90 -7 -128 -28 -26 -15 -47 -23 -47 -18 0 5 -6 15 -12 22 -39 41 -49
58 -54 84 -2 16 -13 36 -24 46 -24 19 -25 36 -5 58 19 21 31 80 17 80 -10 0
-8 36 3 67 2 7 0 15 -6 19 -6 4 -6 11 2 20 6 8 8 14 3 14 -5 1 2 7 16 14 14 8
27 14 30 13 18 -2 53 30 70 63 11 22 18 40 15 40 -3 0 -1 9 5 21 12 21 8 30
-34 82 -21 28 -86 30 -111 5z m78 -189 c-8 -8 -13 -7 -18 2 -5 8 -4 10 3 5 7
-4 12 -2 12 5 0 7 3 9 7 6 4 -4 2 -12 -4 -18z m-63 -599 c8 -14 8 -20 0 -20
-6 0 -9 -4 -6 -9 3 -5 -1 -14 -9 -21 -13 -11 -15 -7 -13 29 1 45 11 52 28 21z
m-1142 -37 c21 -5 22 -11 22 -84 0 -61 -3 -81 -15 -85 -8 -4 -13 -9 -10 -13 2
-4 -14 -7 -35 -7 -22 1 -40 -2 -40 -6 0 -4 -7 -5 -15 -1 -22 8 -60 83 -43 83
9 0 8 3 -2 10 -8 5 -10 10 -3 10 6 0 10 8 9 17 -7 44 54 100 94 86 8 -3 25 -8
38 -10z"/>
<path d="M1897 4174 c-1 -1 -31 -4 -67 -7 -36 -4 -76 -9 -90 -12 -14 -3 -36
-8 -50 -11 -52 -12 -58 -14 -167 -61 -221 -95 -413 -280 -507 -488 -15 -33
-31 -68 -37 -77 -21 -40 -4 -106 36 -144 81 -75 210 -45 271 63 32 58 94 151
114 174 63 71 104 106 160 139 76 46 186 89 250 98 69 11 254 6 297 -8 111
-34 228 -92 283 -140 14 -12 34 -30 45 -39 105 -86 245 -367 218 -437 -7 -18
-97 -36 -167 -32 l-58 3 -22 61 c-13 34 -35 83 -50 109 -28 47 -122 145 -139
145 -5 0 -21 8 -35 19 -74 51 -233 74 -350 51 -162 -33 -306 -172 -357 -345
-18 -63 -13 -213 9 -275 57 -154 192 -278 350 -319 41 -11 191 -9 241 3 46 11
151 72 197 114 54 49 106 132 134 212 l23 65 63 1 c76 2 148 -13 155 -33 10
-27 -19 -126 -61 -207 -49 -96 -59 -109 -153 -202 -124 -123 -300 -195 -478
-197 -220 -1 -450 116 -582 296 -59 81 -65 87 -107 109 -102 52 -216 4 -231
-98 -8 -51 7 -89 71 -174 206 -274 499 -436 806 -444 149 -4 213 4 349 44 249
74 511 301 610 526 28 65 69 184 63 184 -3 0 0 8 5 19 10 18 15 39 31 136 7
44 5 234 -4 305 -5 43 -65 223 -89 270 -72 138 -123 209 -221 306 -161 160
-384 267 -603 290 -64 6 -152 11 -156 8z"/>
<path d="M4454 2942 c6 -11 0 -13 -25 -12 -71 4 -89 0 -90 -17 0 -15 -1 -16
-7 -2 -9 19 -91 24 -113 7 -47 -38 -43 -93 9 -128 27 -19 31 -26 18 -28 -9 -2
-24 2 -32 9 -13 10 -17 10 -25 -2 -24 -38 6 -69 66 -69 51 0 75 24 75 75 0 30
-36 75 -60 75 -6 0 -10 5 -10 11 0 7 10 9 26 6 14 -2 31 1 39 9 11 11 14 11
19 -1 3 -9 9 -15 13 -14 30 5 33 -4 33 -82 l0 -80 33 3 32 3 2 73 c1 41 4 76
7 80 12 12 46 12 46 -1 5 -136 18 -157 100 -157 68 0 87 26 88 119 0 38 3 79
7 90 5 16 2 21 -12 22 -10 1 -29 3 -43 4 l-25 3 0 -86 c0 -80 -2 -87 -20 -87
-19 0 -20 6 -18 83 1 45 -1 82 -5 83 -41 4 -64 3 -69 -4 -2 -4 -11 -3 -19 4
-8 6 -14 8 -14 4 0 -4 -8 -1 -17 6 -13 11 -15 11 -9 1z"/>
<path d="M3354 2929 c-5 -9 -35 -118 -41 -151 -3 -15 -8 -26 -12 -24 -3 2 -6
-9 -7 -25 -1 -26 2 -29 28 -29 21 0 32 7 40 25 6 14 20 25 30 25 11 0 23 -11
28 -25 7 -19 17 -25 40 -25 35 0 39 19 15 87 -8 22 -17 54 -20 70 -3 15 -8 35
-10 43 -2 8 -4 18 -4 21 -1 9 -81 16 -87 8z m46 -119 c0 -11 -4 -20 -10 -20
-5 0 -10 9 -10 20 0 11 5 20 10 20 6 0 10 -9 10 -20z"/>
<path d="M4726 2918 c-4 -19 -2 -184 3 -210 2 -12 90 -9 114 4 23 12 52 38 43
38 -3 0 -1 12 5 27 14 38 2 97 -26 126 -17 17 -37 24 -71 26 -26 1 -51 4 -56
7 -4 3 -10 -5 -12 -18z m99 -80 c6 -30 2 -55 -13 -70 -17 -17 -25 -4 -24 39 0
53 0 53 17 53 8 0 17 -10 20 -22z"/>
<path d="M3111 2908 c-4 -10 -6 -60 -6 -111 l0 -92 55 -3 c45 -2 60 2 85 22
27 22 30 29 30 88 0 66 -8 83 -50 105 -34 18 -106 12 -114 -9z m97 -80 c3 -29
-13 -68 -28 -68 -6 0 -10 23 -10 51 0 43 3 50 18 47 10 -2 18 -14 20 -30z"/>
<path d="M3524 2916 c-3 -7 -6 -59 -7 -115 l-2 -101 31 0 c31 0 31 1 29 45 -1
25 1 45 5 45 3 0 16 -20 28 -45 20 -41 25 -45 54 -42 l33 3 0 99 c0 55 -1 105
-3 112 -2 6 -16 11 -30 10 -25 -2 -27 -6 -27 -44 -1 -58 -9 -61 -31 -11 -10
24 -23 46 -29 50 -17 12 -45 9 -51 -6z"/>
<path d="M3757 2906 c-23 -18 -29 -33 -33 -77 -6 -65 9 -98 54 -120 59 -30
127 4 92 45 -6 8 -20 12 -30 9 -29 -8 -50 15 -50 53 0 36 26 59 54 48 21 -8
41 32 25 52 -18 22 -80 17 -112 -10z"/>
<path d="M3908 2911 c-2 -9 -3 -59 -3 -111 l0 -95 61 -3 c48 -2 63 0 67 13 10
25 -4 45 -32 45 -18 0 -28 5 -28 15 0 9 10 15 24 15 20 0 24 5 21 23 -2 14
-11 23 -25 25 -35 5 -28 30 10 34 31 3 34 7 28 48 0 5 -28 8 -60 8 -45 -1 -60
-5 -63 -17z"/>
<path d="M4974 2920 c-36 -14 -54 -50 -54 -108 0 -46 4 -58 29 -83 57 -57 152
-29 168 49 4 20 6 40 5 43 0 4 -3 19 -6 35 -10 57 -81 89 -142 64z m77 -84 c3
-61 -8 -81 -40 -71 -28 9 -37 49 -17 79 19 30 55 25 57 -8z"/>
</g>
</svg>
